HIERARCHY
ROOT hip
{
  OFFSET 5.70873 43.8894 -1.52928
  CHANNELS 6 Xposition Yposition Zposition Zrotation Xrotation Yrotation
  JOINT abdomen
  {
    OFFSET 0 5.99393 0.287273
    CHANNELS 6 Xposition Yposition Zposition Zrotation Xrotation Yrotation
    JOINT chest
    {
      OFFSET 0 6.65865 -0.856112
      CHANNELS 6 Xposition Yposition Zposition Zrotation Xrotation Yrotation
      JOINT neck
      {
        OFFSET 0 8.65624 -1.42685
        CHANNELS 6 Xposition Yposition Zposition Zrotation Xrotation Yrotation
        JOINT head
        {
          OFFSET 0 3.80999 -0.190247
          CHANNELS 6 Xposition Yposition Zposition Zrotation Xrotation Yrotation
          End Site
          {
            OFFSET 0 0 0
          }
        }
      }
      JOINT rCollar
      {
        OFFSET -1.4963 7.5744 -1.52136
        CHANNELS 6 Xposition Yposition Zposition Zrotation Xrotation Yrotation
        JOINT rShldr
        {
          OFFSET -5.47506 -0.905672 0.485692
          CHANNELS 6 Xposition Yposition Zposition Zrotation Xrotation Yrotation
          JOINT rForeArm
          {
            OFFSET -11.3069 -0.201091 0.618544
            CHANNELS 6 Xposition Yposition Zposition Zrotation Xrotation Yrotation
            JOINT rHand
            {
              OFFSET -9.61414 -0.254739 3.48553
              CHANNELS 6 Xposition Yposition Zposition Zrotation Xrotation Yrotation
              JOINT rThumb1
              {
                OFFSET 0.176263 -0.07068 1.26622
                CHANNELS 6 Xposition Yposition Zposition Zrotation Xrotation Yrotation
                JOINT rThumb2
                {
                  OFFSET -1.04683 -0.546484 1.82182
                  CHANNELS 6 Xposition Yposition Zposition Zrotation Xrotation Yrotation
                  JOINT rThumb3
                  {
                    OFFSET -0.993472 -0.621916 0.655506
                    CHANNELS 6 Xposition Yposition Zposition Zrotation Xrotation Yrotation
                    End Site
                    {
                      OFFSET -0.996134 -0.66263 0.644615
                    }
                  }
                }
              }
              JOINT rIndex1
              {
                OFFSET -2.64253 0.566363 2.4162
                CHANNELS 6 Xposition Yposition Zposition Zrotation Xrotation Yrotation
                JOINT rIndex2
                {
                  OFFSET -1.39394 -0.635138 0.899356
                  CHANNELS 6 Xposition Yposition Zposition Zrotation Xrotation Yrotation
                  JOINT rIndex3
                  {
                    OFFSET -0.622395 -0.856016 0.402182
                    CHANNELS 6 Xposition Yposition Zposition Zrotation Xrotation Yrotation
                    End Site
                    {
                      OFFSET -0.472476 -0.801802 0.34216
                    }
                  }
                }
              }
              JOINT rMid1
              {
                OFFSET -3.20814 0.514427 1.52547
                CHANNELS 6 Xposition Yposition Zposition Zrotation Xrotation Yrotation
                JOINT rMid2
                {
                  OFFSET -1.56545 -0.497974 0.68919
                  CHANNELS 6 Xposition Yposition Zposition Zrotation Xrotation Yrotation
                  JOINT rMid3
                  {
                    OFFSET -0.679943 -1.17582 0.444246
                    CHANNELS 6 Xposition Yposition Zposition Zrotation Xrotation Yrotation
                    End Site
                    {
                      OFFSET -0.343874 -0.941341 0.267611
                    }
                  }
                }
              }
              JOINT rRing1
              {
                OFFSET -3.47877 0.200518 0.597719
                CHANNELS 6 Xposition Yposition Zposition Zrotation Xrotation Yrotation
                JOINT rRing2
                {
                  OFFSET -1.28208 -0.53155 0.44672
                  CHANNELS 6 Xposition Yposition Zposition Zrotation Xrotation Yrotation
                  JOINT rRing3
                  {
                    OFFSET -0.710288 -0.970167 0.4032
                    CHANNELS 6 Xposition Yposition Zposition Zrotation Xrotation Yrotation
                    End Site
                    {
                      OFFSET -0.403228 -0.950952 0.378354
                    }
                  }
                }
              }
              JOINT rPinky1
              {
                OFFSET -3.42483 -0.278904 -0.240415
                CHANNELS 6 Xposition Yposition Zposition Zrotation Xrotation Yrotation
                JOINT rPinky2
                {
                  OFFSET -1.05787 -0.635999 0.156459
                  CHANNELS 6 Xposition Yposition Zposition Zrotation Xrotation Yrotation
                  JOINT rPinky3
                  {
                    OFFSET -0.42815 -0.754232 0.287187
                    CHANNELS 6 Xposition Yposition Zposition Zrotation Xrotation Yrotation
                    End Site
                    {
                      OFFSET -0.235717 -0.725605 0.279416
                    }
                  }
                }
              }
            }
          }
        }
      }
      JOINT lCollar
      {
        OFFSET 1.4963 7.5744 -1.52136
        CHANNELS 6 Xposition Yposition Zposition Zrotation Xrotation Yrotation
        JOINT lShldr
        {
          OFFSET 5.47506 -0.905672 0.485692
          CHANNELS 6 Xposition Yposition Zposition Zrotation Xrotation Yrotation
          JOINT lForeArm
          {
            OFFSET 11.3069 -0.201091 0.618544
            CHANNELS 6 Xposition Yposition Zposition Zrotation Xrotation Yrotation
            JOINT lHand
            {
              OFFSET 9.61414 -0.254739 3.48553
              CHANNELS 6 Xposition Yposition Zposition Zrotation Xrotation Yrotation
              JOINT lThumb1
              {
                OFFSET -0.176263 -0.07068 1.26622
                CHANNELS 6 Xposition Yposition Zposition Zrotation Xrotation Yrotation
                JOINT lThumb2
                {
                  OFFSET 1.04683 -0.546484 1.82182
                  CHANNELS 6 Xposition Yposition Zposition Zrotation Xrotation Yrotation
                  JOINT lThumb3
                  {
                    OFFSET 0.993472 -0.621916 0.655506
                    CHANNELS 6 Xposition Yposition Zposition Zrotation Xrotation Yrotation
                    End Site
                    {
                      OFFSET 0.996134 -0.66263 0.644615
                    }
                  }
                }
              }
              JOINT lIndex1
              {
                OFFSET 2.64253 0.566363 2.4162
                CHANNELS 6 Xposition Yposition Zposition Zrotation Xrotation Yrotation
                JOINT lIndex2
                {
                  OFFSET 1.39394 -0.635138 0.899356
                  CHANNELS 6 Xposition Yposition Zposition Zrotation Xrotation Yrotation
                  JOINT lIndex3
                  {
                    OFFSET 0.622395 -0.856016 0.402182
                    CHANNELS 6 Xposition Yposition Zposition Zrotation Xrotation Yrotation
                    End Site
                    {
                      OFFSET 0.472476 -0.801802 0.34216
                    }
                  }
                }
              }
              JOINT lMid1
              {
                OFFSET 3.20814 0.514427 1.52547
                CHANNELS 6 Xposition Yposition Zposition Zrotation Xrotation Yrotation
                JOINT lMid2
                {
                  OFFSET 1.56545 -0.497974 0.68919
                  CHANNELS 6 Xposition Yposition Zposition Zrotation Xrotation Yrotation
                  JOINT lMid3
                  {
                    OFFSET 0.679943 -1.17582 0.444246
                    CHANNELS 6 Xposition Yposition Zposition Zrotation Xrotation Yrotation
                    End Site
                    {
                      OFFSET 0.343874 -0.941341 0.267611
                    }
                  }
                }
              }
              JOINT lRing1
              {
                OFFSET 3.47877 0.200518 0.597719
                CHANNELS 6 Xposition Yposition Zposition Zrotation Xrotation Yrotation
                JOINT lRing2
                {
                  OFFSET 1.28208 -0.53155 0.44672
                  CHANNELS 6 Xposition Yposition Zposition Zrotation Xrotation Yrotation
                  JOINT lRing3
                  {
                    OFFSET 0.710288 -0.970167 0.4032
                    CHANNELS 6 Xposition Yposition Zposition Zrotation Xrotation Yrotation
                    End Site
                    {
                      OFFSET 0.403228 -0.950952 0.378354
                    }
                  }
                }
              }
              JOINT lPinky1
              {
                OFFSET 3.42483 -0.278904 -0.240415
                CHANNELS 6 Xposition Yposition Zposition Zrotation Xrotation Yrotation
                JOINT lPinky2
                {
                  OFFSET 1.05787 -0.635999 0.156459
                  CHANNELS 6 Xposition Yposition Zposition Zrotation Xrotation Yrotation
                  JOINT lPinky3
                  {
                    OFFSET 0.42815 -0.754232 0.287187
                    CHANNELS 6 Xposition Yposition Zposition Zrotation Xrotation Yrotation
                    End Site
                    {
                      OFFSET 0.235717 -0.725605 0.279416
                    }
                  }
                }
              }
            }
          }
        }
      }
    }
  }
  JOINT rThigh
  {
    OFFSET -4.17848 -1.02486 0.046356
    CHANNELS 6 Xposition Yposition Zposition Zrotation Xrotation Yrotation
    JOINT rShin
    {
      OFFSET 1.27155 -17.465 -0.237699
      CHANNELS 6 Xposition Yposition Zposition Zrotation Xrotation Yrotation
      JOINT rFoot
      {
        OFFSET 0.529163 -17.3815 -1.19582
        CHANNELS 6 Xposition Yposition Zposition Zrotation Xrotation Yrotation
        JOINT rToe
        {
          OFFSET -0.711591 -4.4863 4.0596
          CHANNELS 6 Xposition Yposition Zposition Zrotation Xrotation Yrotation
          End Site
          {
            OFFSET -0.869915 -1.10655 1.99006
          }
        }
      }
    }
  }
  JOINT lThigh
  {
    OFFSET 4.17848 -1.02486 0.046356
    CHANNELS 6 Xposition Yposition Zposition Zrotation Xrotation Yrotation
    JOINT lShin
    {
      OFFSET -1.27155 -17.465 -0.237699
      CHANNELS 6 Xposition Yposition Zposition Zrotation Xrotation Yrotation
      JOINT lFoot
      {
        OFFSET -0.529163 -17.3815 -1.19582
        CHANNELS 6 Xposition Yposition Zposition Zrotation Xrotation Yrotation
        JOINT lToe
        {
          OFFSET 0.711591 -4.4863 4.0596
          CHANNELS 6 Xposition Yposition Zposition Zrotation Xrotation Yrotation
          End Site
          {
            OFFSET 0.869915 -1.10655 1.99006
          }
        }
      }
    }
  }
}
MOTION
Frames:	4
Frame Time:	0.0333333
-10.6888 64.3951 -8.22957 3.50302 -16.689 1.21343 -1.77636e-015 5.99393 0.287273 2.04698 1.13483 -2.24921 8.88178e-016 6.65865 -0.856112 4.13806 2.18763 -4.53877 0 8.65624 -1.42685 -8.68585 18.3683 18.3322 -1.77636e-015 3.80999 -0.190247 -16.0345 3.14258 16.3503 -1.4963 7.5744 -1.52136 -17.4231 -0.153876 3.76927 -5.47506 -0.905672 0.485692 65.9296 15.245 50.0555 -11.3069 -0.201091 0.618544 40.7057 1.5625 71.4272 -9.61414 -0.254739 3.48553 62.2185 -31.3834 38.4402 0.176263 -0.07068 1.26622 -15.3515 48.2362 16.551 -1.04683 -0.546484 1.82182 -0.546772 0.59194 -1.65478 -0.993472 -0.621916 0.655506 -4.24859 5.79627 -14.6215 -2.64253 0.566363 2.4162 -21.466 4.91655 -12.2941 -1.39394 -0.635138 0.899356 38.7688 7.58149 -8.50758 -0.622395 -0.856016 0.402182 44.3489 8.12729 -10.0618 -3.20814 0.514427 1.52547 1.4022 6.23172 -9.77525 -1.56545 -0.497974 0.68919 50.6813 10.3801 -12.4392 -0.679943 -1.17582 0.444246 43.0766 9.61667 -10.0916 -3.47877 0.200518 0.597719 15.9428 -0.00215802 -5.23516 -1.28208 -0.53155 0.44672 36.3466 9.48442 -9.81641 -0.710288 -0.970167 0.4032 37.9046 9.72902 -10.3444 -3.42483 -0.278904 -0.240415 23.5253 -0.943899 -1.35285 -1.05787 -0.635999 0.156459 30.1115 9.26392 -7.58384 -0.42815 -0.754232 0.287187 30.1038 9.26253 -7.58136 1.4963 7.5744 -1.52136 23.9566 -0.951279 -9.21005 5.47506 -0.905672 0.485692 -60.8503 3.58476 -47.0852 11.3069 -0.201091 0.618544 -39.9777 -15.1721 -98.8729 9.61414 -0.254739 3.48553 -107.993 -56.0924 -64.8516 -0.176263 -0.07068 1.26622 15.0785 48.9674 -19.5091 1.04683 -0.546484 1.82182 -1.89499 -0.502976 -3.35832 0.993472 -0.621916 0.655506 6.45109 2.66696 11.8096 2.64253 0.566363 2.4162 0.88832 2.95456 18.7575 1.39394 -0.635138 0.899356 -47.6003 6.53211 22.2925 0.622395 -0.856016 0.402182 -32.1766 6.52301 14.6812 3.20814 0.514427 1.52547 -9.77247 0.871207 11.7615 1.56545 -0.497974 0.68919 -44.4868 8.35702 21.4002 0.679943 -1.17582 0.444246 -30.5881 7.63056 14.2456 3.47877 0.200518 0.597719 -13.3266 -4.55179 13.2544 1.28208 -0.53155 0.44672 -31.8038 8.40315 16.6238 0.710288 -0.970167 0.4032 -33.0953 8.53214 17.3551 3.42483 -0.278904 -0.240415 -10.8477 -12.6999 15.3001 1.05787 -0.635999 0.156459 -26.0707 8.47279 13.313 0.42815 -0.754232 0.287187 -24.8941 8.23789 12.659 -4.17848 -1.02486 0.046356 -13.915 -22.3827 7.6539 1.27155 -17.465 -0.237699 48.0512 62.1407 -35.799 0.529163 -17.3815 -1.19582 18.6944 -9.8404 19.5324 -0.711591 -4.4863 4.0596 0.455991 3.31202 -0.102008 4.17848 -1.02486 0.046356 -5.82408 -1.59541 -6.1797 -1.27155 -17.465 -0.237699 0.317871 -3.1471 1.37815 -0.529163 -17.3815 -1.19582 -16.5703 1.08223 16.459 0.711591 -4.4863 4.0596 -1.17969 9.88163 -0.396784 
-10.5442 64.3775 -8.0834 2.9337 -16.8538 -0.151941 0 5.99393 0.287273 2.08958 1.3495 -2.22084 8.88178e-016 6.65865 -0.856112 4.23158 2.61608 -4.49119 -1.11022e-015 8.65624 -1.42685 -8.5628 17.1738 17.9687 4.44089e-016 3.80999 -0.190247 -16.0555 2.93785 17.0773 -1.4963 7.5744 -1.52136 -17.3442 -0.153094 3.76945 -5.47506 -0.905672 0.485692 66.3975 15.2673 49.618 -11.3069 -0.201091 0.618544 42.7108 2.10301 72.3646 -9.61414 -0.254739 3.48553 61.2899 -30.8598 36.0512 0.176263 -0.07068 1.26622 -15.2715 47.8834 16.2396 -1.04683 -0.546484 1.82182 -0.551314 0.597017 -1.66873 -0.993472 -0.621916 0.655506 -4.22824 5.75965 -14.5374 -2.64253 0.566363 2.4162 -21.1405 4.86627 -12.0928 -1.39394 -0.635138 0.899356 38.5473 7.55671 -8.44699 -0.622395 -0.856016 0.402182 44.036 8.10074 -9.97345 -3.20814 0.514427 1.52547 1.46576 6.19683 -9.70269 -1.56545 -0.497974 0.68919 50.2975 10.3491 -12.3186 -0.679943 -1.17582 0.444246 42.8098 9.58425 -10.0111 -3.47877 0.200518 0.597719 15.8653 0.0489792 -5.16814 -1.28208 -0.53155 0.44672 36.0744 9.44033 -9.72468 -0.710288 -0.970167 0.4032 37.6582 9.69147 -10.2604 -3.42483 -0.278904 -0.240415 23.3683 -0.881179 -1.28469 -1.05787 -0.635999 0.156459 29.9122 9.2185 -7.51993 -0.42815 -0.754232 0.287187 29.9019 9.21649 -7.51664 1.4963 7.5744 -1.52136 24.3053 -0.953491 -9.20225 5.47506 -0.905672 0.485692 -61.8464 4.41631 -46.8132 11.3069 -0.201091 0.618544 -42.2179 -12.6736 -100.773 9.61414 -0.254739 3.48553 -98.5195 -58.2411 -56.7984 -0.176263 -0.07068 1.26622 15.318 48.8069 -19.8657 1.04683 -0.546484 1.82182 -1.97745 -0.52217 -3.50368 0.993472 -0.621916 0.655506 6.45107 2.6669 11.8096 2.64253 0.566363 2.4162 0.768577 2.98291 18.6473 1.39394 -0.635138 0.899356 -47.4113 6.54431 22.1996 0.622395 -0.856016 0.402182 -32.2893 6.53049 14.7366 3.20814 0.514427 1.52547 -9.62822 0.846119 11.5776 1.56545 -0.497974 0.68919 -44.4869 8.35702 21.4002 0.679943 -1.17582 0.444246 -30.1984 7.5853 14.0477 3.47877 0.200518 0.597719 -13.241 -4.51727 13.121 1.28208 -0.53155 0.44672 -31.4923 8.36946 16.4478 0.710288 -0.970167 0.4032 -32.788 8.50285 17.1811 3.42483 -0.278904 -0.240415 -10.4682 -12.6377 15.0277 1.05787 -0.635999 0.156459 -25.9402 8.4474 13.2403 0.42815 -0.754232 0.287187 -24.6058 8.17818 12.4993 -4.17848 -1.02486 0.046356 -14.0742 -22.8284 7.55332 1.27155 -17.465 -0.237699 50.7799 63.1283 -38.4215 0.529163 -17.3815 -1.19582 18.7973 -10.2379 19.9127 -0.711591 -4.4863 4.0596 0.43882 3.18828 -0.0977122 4.17848 -1.02486 0.046356 -5.73428 -1.48755 -6.44277 -1.27155 -17.465 -0.237699 0.318342 -3.14742 1.36835 -0.529163 -17.3815 -1.19582 -16.8602 0.989154 16.2636 0.711591 -4.4863 4.0596 -1.12873 9.44731 -0.383488 
-10.4552 64.3826 -7.96102 2.51288 -16.9858 -1.32718 0 5.99393 0.287273 2.11684 1.637 -2.1081 8.88178e-016 6.65865 -0.856112 4.29505 3.19381 -4.27778 8.88178e-016 8.65624 -1.42685 -8.17262 15.6927 17.1905 -8.88178e-016 3.80999 -0.190247 -15.467 2.71245 17.4119 -1.4963 7.5744 -1.52136 -17.1559 -0.15094 3.74912 -5.47506 -0.905672 0.485692 66.8748 15.2257 49.1437 -11.3069 -0.201091 0.618544 44.6752 2.92621 73.3753 -9.61414 -0.254739 3.48553 59.7799 -30.2958 33.3665 0.176263 -0.07068 1.26622 -15.1532 47.4776 15.8828 -1.04683 -0.546484 1.82182 -0.555865 0.602069 -1.6827 -0.993472 -0.621916 0.655506 -4.20783 5.72308 -14.4534 -2.64253 0.566363 2.4162 -20.7958 4.81302 -11.8897 -1.39394 -0.635138 0.899356 38.2736 7.52576 -8.37224 -0.622395 -0.856016 0.402182 43.7231 8.07368 -9.88521 -3.20814 0.514427 1.52547 1.52939 6.16198 -9.6301 -1.56545 -0.497974 0.68919 49.8823 10.3146 -12.1884 -0.679943 -1.17582 0.444246 42.4856 9.54434 -9.91341 -3.47877 0.200518 0.597719 15.7877 0.100019 -5.10101 -1.28208 -0.53155 0.44672 35.7711 9.39071 -9.62271 -0.710288 -0.970167 0.4032 37.387 9.64971 -10.1681 -3.42483 -0.278904 -0.240415 23.1884 -0.821662 -1.22565 -1.05787 -0.635999 0.156459 29.713 9.17285 -7.45619 -0.42815 -0.754232 0.287187 29.7001 9.17024 -7.45208 1.4963 7.5744 -1.52136 24.4371 -0.954156 -9.19674 5.47506 -0.905672 0.485692 -62.5167 5.16492 -46.681 11.3069 -0.201091 0.618544 -44.3053 -10.0481 -102.497 9.61414 -0.254739 3.48553 -88.6525 -59.4067 -48.2363 -0.176263 -0.07068 1.26622 15.5455 48.6489 -20.2069 1.04683 -0.546484 1.82182 -2.05994 -0.541175 -3.64909 0.993472 -0.621916 0.655506 6.45111 2.66703 11.8096 2.64253 0.566363 2.4162 0.648923 3.01153 18.5371 1.39394 -0.635138 0.899356 -47.2222 6.55624 22.1067 0.622395 -0.856016 0.402182 -32.4021 6.53784 14.7921 3.20814 0.514427 1.52547 -9.48404 0.820583 11.3937 1.56545 -0.497974 0.68919 -44.4868 8.35699 21.4002 0.679943 -1.17582 0.444246 -29.8227 7.5404 13.8572 3.47877 0.200518 0.597719 -13.1553 -4.48294 12.9876 1.28208 -0.53155 0.44672 -31.1854 8.33535 16.2746 0.710288 -0.970167 0.4032 -32.4852 8.47311 17.0097 3.42483 -0.278904 -0.240415 -10.0885 -12.5771 14.755 1.05787 -0.635999 0.156459 -25.8098 8.42187 13.1677 0.42815 -0.754232 0.287187 -24.3178 8.11768 12.3399 -4.17848 -1.02486 0.046356 -14.1481 -23.0587 7.65528 1.27155 -17.465 -0.237699 52.6187 63.7239 -40.1558 0.529163 -17.3815 -1.19582 18.9764 -10.4659 20.0334 -0.711591 -4.4863 4.0596 0.449493 3.26517 -0.100367 4.17848 -1.02486 0.046356 -5.69824 -1.44501 -6.46905 -1.27155 -17.465 -0.237699 0.321157 -3.05975 1.34286 -0.529163 -17.3815 -1.19582 -16.717 0.664354 16.0301 0.711591 -4.4863 4.0596 -1.08881 9.10742 -0.372812 
-10.4192 64.4572 -7.84395 2.2312 -17.0305 -2.16144 1.77636e-015 5.99393 0.287273 2.15194 1.91578 -1.98469 -8.88178e-016 6.65865 -0.856112 4.37253 3.75446 -4.04324 -1.55431e-015 8.65624 -1.42685 -7.58518 14.0766 16.1132 8.88178e-016 3.80999 -0.190247 -14.1237 2.36153 17.0514 -1.4963 7.5744 -1.52136 -16.7809 -0.147785 3.77146 -5.47506 -0.905672 0.485692 67.3966 15.1093 48.3204 -11.3069 -0.201091 0.618544 46.5147 4.27915 74.3252 -9.61414 -0.254739 3.48553 57.7917 -29.5901 30.5456 0.176263 -0.07068 1.26622 -15.0149 47.0469 15.5075 -1.04683 -0.546484 1.82182 -0.560412 0.607129 -1.69664 -0.993472 -0.621916 0.655506 -4.18735 5.68653 -14.3693 -2.64253 0.566363 2.4162 -20.451 4.76104 -11.6864 -1.39394 -0.635138 0.899356 38 7.49446 -8.29763 -0.622395 -0.856016 0.402182 43.3518 8.04096 -9.78068 -3.20814 0.514427 1.52547 1.5887 6.11672 -9.54161 -1.56545 -0.497974 0.68919 49.4362 10.2765 -12.0487 -0.679943 -1.17582 0.444246 42.1614 9.50387 -9.81595 -3.47877 0.200518 0.597719 15.6916 0.1453 -5.02993 -1.28208 -0.53155 0.44672 35.4679 9.34054 -9.52103 -0.710288 -0.970167 0.4032 37.0777 9.60156 -10.0632 -3.42483 -0.278904 -0.240415 23.0085 -0.762385 -1.16645 -1.05787 -0.635999 0.156459 29.4758 9.1182 -7.38052 -0.42815 -0.754232 0.287187 29.4984 9.12376 -7.38769 1.4963 7.5744 -1.52136 24.2323 -0.961624 -9.29203 5.47506 -0.905672 0.485692 -63.3455 6.20466 -46.5051 11.3069 -0.201091 0.618544 -46.3961 -7.11724 -104.256 9.61414 -0.254739 3.48553 -77.6093 -59.7209 -38.1405 -0.176263 -0.07068 1.26622 15.7709 48.4899 -20.5461 1.04683 -0.546484 1.82182 -2.13859 -0.559059 -3.78762 0.993472 -0.621916 0.655506 6.45111 2.66702 11.8096 2.64253 0.566363 2.4162 0.539043 3.03727 18.4332 1.39394 -0.635138 0.899356 -47.0331 6.56784 22.0137 0.622395 -0.856016 0.402182 -32.515 6.5451 14.8475 3.20814 0.514427 1.52547 -9.33998 0.794587 11.21 1.56545 -0.497974 0.68919 -44.4868 8.35697 21.4002 0.679943 -1.17582 0.444246 -29.4473 7.49429 13.6669 3.47877 0.200518 0.597719 -13.0696 -4.44881 12.8541 1.28208 -0.53155 0.44672 -30.8885 8.30143 16.1072 0.710288 -0.970167 0.4032 -32.1885 8.44308 16.8419 3.42483 -0.278904 -0.240415 -9.72906 -12.5207 14.5066 1.05787 -0.635999 0.156459 -25.6874 8.39773 13.0996 0.42815 -0.754232 0.287187 -24.0387 8.05827 12.1857 -4.17848 -1.02486 0.046356 -14.4429 -23.1591 7.12931 1.27155 -17.465 -0.237699 53.7637 64.0787 -41.2155 0.529163 -17.3815 -1.19582 19.011 -10.4181 19.7499 -0.711591 -4.4863 4.0596 0.522703 3.79187 -0.119002 4.17848 -1.02486 0.046356 -5.61896 -1.32121 -6.26823 -1.27155 -17.465 -0.237699 0.326531 -3.14903 1.32219 -0.529163 -17.3815 -1.19582 -16.4168 -0.346608 15.3472 0.711591 -4.4863 4.0596 -1.08317 9.05928 -0.371279 
